<svg width="27" height="26" viewBox="0 0 27 26" fill="none" xmlns="http://www.w3.org/2000/svg">
<path d="M3.70381 8.45479C3.15267 7.28702 3.02028 5.96503 3.32897 4.71112C3.63783 3.45725 4.36891 2.34791 5.39948 1.5697L6.27238 0.885625C6.67064 0.587789 7.16956 0.457637 7.66248 0.523039C8.1554 0.58844 8.60329 0.844217 8.90992 1.23558L11.7687 5.00995C12.0658 5.40507 12.1959 5.90107 12.1309 6.39115C12.0658 6.88122 11.8109 7.32616 11.4211 7.63011C11.0297 7.93686 10.7739 8.38465 10.7085 8.8776C10.6431 9.37055 10.7732 9.86952 11.0711 10.2677L15.6161 16.2033C15.7652 16.401 15.9521 16.5671 16.1659 16.6919C16.3797 16.8167 16.6162 16.8977 16.8617 16.9303C17.1071 16.9628 17.3566 16.9463 17.5956 16.8816C17.8345 16.8168 18.0583 16.7053 18.2537 16.5533C18.6488 16.2562 19.1448 16.1261 19.6349 16.1911C20.125 16.2562 20.5699 16.5111 20.8739 16.9009L23.7524 20.6601C24.0502 21.0584 24.1804 21.5573 24.115 22.0502C24.0495 22.5433 23.7938 22.991 23.4024 23.2978L22.5144 23.9622C21.4944 24.754 20.2328 25.1705 18.9417 25.1417C17.6507 25.1129 16.409 24.6403 15.4253 23.8035C10.5762 19.4806 6.59771 14.271 3.70381 8.45479Z" stroke="white" stroke-linecap="round" stroke-linejoin="round"/>
</svg>
