<svg width="69" height="69" viewBox="0 0 69 69" fill="none" xmlns="http://www.w3.org/2000/svg">
<path d="M34.5 39.5C41.4036 39.5 47 33.9036 47 27C47 20.0964 41.4036 14.5 34.5 14.5C27.5964 14.5 22 20.0964 22 27C22 33.9036 27.5964 39.5 34.5 39.5Z" stroke="white" stroke-width="3" stroke-linecap="round" stroke-linejoin="round"/>
<path d="M13.1504 59.0001C15.3816 55.3376 18.5174 52.3106 22.2564 50.2106C25.9954 48.11 30.2118 47.0068 34.5004 47.0068C38.7889 47.0068 43.0053 48.11 46.7443 50.2106C50.4835 52.3106 53.619 55.3376 55.8505 59.0001" stroke="white" stroke-width="3" stroke-linecap="round" stroke-linejoin="round"/>
<path d="M34.5 67C52.4495 67 67 52.4495 67 34.5C67 16.5508 52.4495 2 34.5 2C16.5508 2 2 16.5508 2 34.5C2 52.4495 16.5508 67 34.5 67Z" stroke="white" stroke-width="3" stroke-linecap="round" stroke-linejoin="round"/>
</svg>
